<svg id="图层_1" data-name="图层 1" xmlns="https://www.w3.org/2000/svg" viewBox="0 0 182.86 133.19"><defs><style>.cls-1{isolation:isolate;}</style></defs><g class="cls-1"><path d="M11.49,83V37.06H30.7A18.13,18.13,0,0,1,39,38.85a16,16,0,0,1,6.4,5.84A15.45,15.45,0,0,1,47.79,53a15.77,15.77,0,0,1-2.34,8.38,15.55,15.55,0,0,1-6.37,5.87,18,18,0,0,1-8.38,1.78H23.51V83Z" transform="translate(-8.94 -35.81)"/><path d="M59,45.38a19.18,19.18,0,0,1,7-7,19.21,19.21,0,0,1,19.2,0,19.18,19.18,0,0,1,7,7A18.76,18.76,0,0,1,94.72,55V65.11a18.71,18.71,0,0,1-2.57,9.57,19.18,19.18,0,0,1-7,7,19.21,19.21,0,0,1-19.2,0,19.18,19.18,0,0,1-7-7,18.71,18.71,0,0,1-2.57-9.57V55A18.76,18.76,0,0,1,59,45.38ZM70.43,70.53a6.57,6.57,0,0,0,5.15,2.24,6.48,6.48,0,0,0,5.08-2.24,7.91,7.91,0,0,0,2-5.42V54.88a7.75,7.75,0,0,0-2-5.41,6.56,6.56,0,0,0-5.08-2.18,6.65,6.65,0,0,0-5.15,2.18,7.75,7.75,0,0,0-2,5.41V65.11A7.91,7.91,0,0,0,70.43,70.53Z" transform="translate(-8.94 -35.81)"/><path d="M107.92,37.06h33.46V48.68H119.93v5.81h17.82v11H119.93v5.87h21.45V83H107.92Z" transform="translate(-8.94 -35.81)"/><path d="M154.71,37h2.64l16,28.38,16-28.38h2.44V82.93H154.71Zm2.44,43.56h32.21V42L174.51,68.08H172.2l-15-26.53Z" transform="translate(-8.94 -35.81)"/></g><path d="M28.53,138.77l-4-15.71h26L38.74,169H36.28l-6.55-25.54L23.18,169H20.72L8.94,123.06h2.4l10.58,41.39Zm19-13.26h-20l3.4,13.26,6.61,25.68Z" transform="translate(-8.94 -35.81)"/><path d="M90.5,123.06v2.45H76.77v41.05H90.5V169H60.73v-2.44H74.39v-41H60.73v-2.45Z" transform="translate(-8.94 -35.81)"/><path d="M110.42,123.06v31.09L138,123.06h3L124,142.2,140.94,169h-2.57L122.5,143.92l-12.08,13.66V169h-2.16V123.06Z" transform="translate(-8.94 -35.81)"/><path d="M188.17,123.06v2.45H174.45v41.05h13.72V169H158.41v-2.44h13.66v-41H158.41v-2.45Z" transform="translate(-8.94 -35.81)"/></svg>