<svg width="247" height="130" viewBox="0 0 247 130" fill="none" xmlns="http://www.w3.org/2000/svg">
<rect width="247" height="130" fill="white"/>
<path d="M17.5391 51C17.4036 51 17.3359 50.8307 17.3359 50.4922V50.1875C17.3359 50.0521 17.4206 49.9844 17.5898 49.9844C17.7591 49.9844 18.0046 49.9336 18.3262 49.832C18.6647 49.7305 18.9186 49.6628 19.0879 49.6289C20.8145 49.2396 21.6777 48.2578 21.6777 46.6836V19.8711C21.6777 18.3138 21.39 17.3236 20.8145 16.9004C20.2389 16.4603 19.1979 16.2402 17.6914 16.2402H16.5488C16.1934 16.2402 16.0156 16.0371 16.0156 15.6309C16.0156 15.3939 16.1257 15.25 16.3457 15.1992H16.5234L30.7676 14.8184H33.332C36.362 15.0215 38.8841 16.1133 40.8984 18.0938C42.9128 20.0742 43.9199 22.4525 43.9199 25.2285C43.9199 27.9876 42.9297 30.4928 40.9492 32.7441C40.0859 33.7428 39.1126 34.5553 38.0293 35.1816C36.946 35.791 35.8796 36.1042 34.8301 36.1211L27.2129 35.8164H27.0098C26.7559 35.8164 26.6289 35.9349 26.6289 36.1719V46.6074C26.6289 47.5384 26.8828 48.224 27.3906 48.6641C27.8984 49.1042 28.9733 49.4512 30.6152 49.7051C30.8353 49.7389 31.1908 49.7982 31.6816 49.8828C32.1725 49.9505 32.5026 49.9844 32.6719 49.9844C32.8411 49.9844 32.9258 50.0521 32.9258 50.1875V50.7969C32.9258 50.9323 32.8581 51 32.7227 51H17.5391ZM28.6855 16.1133C28.4824 16.1133 28.2624 16.1217 28.0254 16.1387C27.8053 16.1387 27.5176 16.1471 27.1621 16.1641C26.8066 16.1641 26.6289 16.2995 26.6289 16.5703V32.9473L26.6797 33.709C26.7305 34.0645 26.8913 34.2507 27.1621 34.2676L29.752 34.4199C32.4772 34.4199 34.6693 33.5059 36.3281 31.6777C38.0039 29.8496 38.8418 27.556 38.8418 24.7969C38.8418 22.0208 38.0293 19.8711 36.4043 18.3477C34.7962 16.8242 32.6465 16.0625 29.9551 16.0625C29.7181 16.0625 29.498 16.071 29.2949 16.0879C29.0918 16.0879 28.8887 16.0964 28.6855 16.1133Z" fill="black"/>
<path d="M29.0156 77.2148C26.9844 77.2148 25.9688 77.9935 25.9688 79.5508C25.9688 79.8385 26.0195 80.1432 26.1211 80.4648C26.2396 80.7865 26.3411 81.125 26.4258 81.4805L36.1504 104.891C36.235 105.06 36.3704 105.145 36.5566 105.145C36.7428 105.145 36.8952 105.051 37.0137 104.865L42.625 91.6621L37.6738 79.7031C37.3691 78.9414 36.0996 78.2135 33.8652 77.5195C33.2051 77.3164 32.7734 77.2148 32.5703 77.2148C32.3841 77.2148 32.291 77.1471 32.291 77.0117V76.4023C32.291 76.2669 32.3587 76.1992 32.4941 76.1992H55.752C55.8874 76.1992 55.9551 76.2669 55.9551 76.4023V77.0117C55.9551 77.1471 55.8874 77.2148 55.752 77.2148H54.8125C53.1875 77.2148 51.9518 78.0104 51.1055 79.6016C50.8177 80.1432 50.5215 80.778 50.2168 81.5059L46.916 89.25L53.416 104.891C53.5007 105.06 53.6361 105.145 53.8223 105.145C54.0085 105.145 54.1608 105.051 54.2793 104.865L65.0195 79.6016C65.2227 79.1276 65.3242 78.7044 65.3242 78.332C65.3242 77.5872 64.3509 77.2148 62.4043 77.2148H60.8301C60.6947 77.2148 60.627 77.1471 60.627 77.0117V76.4023C60.627 76.2669 60.6947 76.1992 60.8301 76.1992H72.1289C72.2643 76.1992 72.332 76.2669 72.332 76.4023V77.0117C72.332 77.1471 72.2643 77.2148 72.1289 77.2148H70.9355C70.1908 77.2148 69.6237 77.4772 69.2344 78.002C68.862 78.5098 68.3288 79.5592 67.6348 81.1504L54.584 111.797C54.3978 112.203 54.2031 112.449 54 112.533C53.7969 112.635 53.5007 112.686 53.1113 112.686H51.918C51.5117 112.686 51.2409 112.499 51.1055 112.127L44.25 95.5215L37.3184 111.797C37.1322 112.203 36.9375 112.449 36.7344 112.533C36.5312 112.635 36.235 112.686 35.8457 112.686H34.6523C34.2461 112.686 33.9837 112.491 33.8652 112.102L20.4082 79.7031C20.1374 79.043 19.2995 78.4674 17.8945 77.9766C16.4896 77.4688 15.6178 77.2148 15.2793 77.2148C14.9577 77.2148 14.7969 77.1471 14.7969 77.0117V76.4023C14.7969 76.2669 14.8646 76.1992 15 76.1992H29.4727C29.6081 76.1992 29.6758 76.2669 29.6758 76.4023V77.0117C29.6758 77.1471 29.6081 77.2148 29.4727 77.2148H29.0156ZM48.0586 78.4082C48.0586 77.6973 47.3307 77.3079 45.875 77.2402C44.4023 77.3249 43.556 77.8411 43.3359 78.7891C43.2682 79.026 43.2344 79.2884 43.2344 79.5762C43.2344 79.847 43.2852 80.1432 43.3867 80.4648C43.5052 80.7865 43.6068 81.125 43.6914 81.4805L45.291 85.3652L47.7539 79.6016C47.957 79.1276 48.0586 78.7298 48.0586 78.4082Z" fill="black"/>
<path d="M95.7033 80.2617C95.7033 78.2305 94.5353 77.2148 92.1994 77.2148C91.827 77.2148 91.6408 77.1471 91.6408 77.0117V76.4023C91.6408 76.2669 91.7085 76.1992 91.8439 76.1992H104.565C104.7 76.1992 104.768 76.2669 104.768 76.4023V77.0117C104.768 77.1471 104.395 77.2148 103.651 77.2148C102.906 77.2148 102.22 77.4518 101.594 77.9258C100.968 78.3997 100.654 79.373 100.654 80.8457V107.938C100.654 109.969 101.831 110.984 104.184 110.984C104.539 110.984 104.717 111.052 104.717 111.188V111.797C104.717 111.932 104.649 112 104.514 112H91.7931C91.6577 112 91.59 111.932 91.59 111.797V111.188C91.59 111.052 91.9624 110.984 92.7072 110.984C93.452 110.984 94.1375 110.747 94.7638 110.273C95.3901 109.799 95.7033 108.826 95.7033 107.354V80.2617Z" fill="black"/>
<path d="M147.326 111.797C147.326 111.932 147.258 112 147.123 112H132.193C132.075 112 132.016 111.932 132.016 111.797V111.314C132.016 111.179 132.371 111.103 133.082 111.086C133.81 111.069 134.69 110.807 135.723 110.299C136.772 109.774 137.297 108.987 137.297 107.938V80.2617C137.297 78.349 135.604 77.291 132.219 77.0879C132.083 77.0879 132.016 77.0202 132.016 76.8848V76.4023C132.016 76.2669 132.075 76.1992 132.193 76.1992H147.123C147.258 76.1992 147.326 76.2669 147.326 76.4023V76.8848C147.326 76.9863 146.971 77.0371 146.26 77.0371C145.566 77.0371 144.796 77.2402 143.949 77.6465C142.815 78.1882 142.248 79.0768 142.248 80.3125V91.5098C142.248 92.9993 142.392 93.7441 142.68 93.7441C143.408 93.7441 144.33 93.2871 145.447 92.373C146.564 91.4421 147.555 90.4857 148.418 89.5039C149.281 88.5221 150.145 87.3626 151.008 86.0254C151.888 84.6712 152.497 83.7487 152.836 83.2578C154.105 81.4635 154.74 80.1178 154.74 79.2207C154.74 78.3066 154.351 77.6973 153.572 77.3926C153.064 77.1895 152.337 77.0879 151.389 77.0879H151.135C150.999 77.0879 150.932 77.0202 150.932 76.8848V76.4023C150.932 76.2669 150.999 76.1992 151.135 76.1992H165.811C165.946 76.1992 166.014 76.2669 166.014 76.4023V76.8848C166.014 77.0879 165.912 77.1895 165.709 77.1895C163.542 77.2572 161.96 77.5449 160.961 78.0527C159.962 78.5436 159.158 79.0853 158.549 79.6777C157.956 80.2702 157.305 81.1673 156.594 82.3691C154.427 86.0423 152.269 88.9792 150.119 91.1797C149.205 92.1107 148.731 92.6862 148.697 92.9062C148.782 93.0755 149.476 93.7526 150.779 94.9375C154.029 97.9167 157.44 101.954 161.012 107.049C162.349 108.995 164.101 110.197 166.268 110.654C167.706 110.993 168.612 111.162 168.984 111.162C169.374 111.162 169.568 111.23 169.568 111.365V111.797C169.568 111.932 169.501 112 169.365 112H152.76C152.624 112 152.557 111.932 152.557 111.797V111.314C152.557 111.179 152.844 111.086 153.42 111.035C155.333 110.866 156.289 110.307 156.289 109.359C156.171 108.411 154.469 106.067 151.186 102.326C150.593 101.666 149.975 100.93 149.332 100.117C146.759 96.9518 144.643 95.3691 142.984 95.3691H142.502C142.333 95.3691 142.248 95.4876 142.248 95.7246V107.607C142.248 109.977 143.873 111.162 147.123 111.162C147.258 111.162 147.326 111.23 147.326 111.365V111.797Z" fill="black"/>
<path d="M206.059 80.2617C206.059 78.2305 204.891 77.2148 202.555 77.2148C202.183 77.2148 201.997 77.1471 201.997 77.0117V76.4023C201.997 76.2669 202.065 76.1992 202.2 76.1992H214.921C215.056 76.1992 215.124 76.2669 215.124 76.4023V77.0117C215.124 77.1471 214.751 77.2148 214.007 77.2148C213.262 77.2148 212.576 77.4518 211.95 77.9258C211.324 78.3997 211.01 79.373 211.01 80.8457V107.938C211.01 109.969 212.187 110.984 214.54 110.984C214.895 110.984 215.073 111.052 215.073 111.188V111.797C215.073 111.932 215.005 112 214.87 112H202.149C202.014 112 201.946 111.932 201.946 111.797V111.188C201.946 111.052 202.318 110.984 203.063 110.984C203.808 110.984 204.494 110.747 205.12 110.273C205.746 109.799 206.059 108.826 206.059 107.354V80.2617Z" fill="black"/>
<path d="M105.551 48.8164C104.078 49.7135 102.47 50.416 100.727 50.9238C98.9831 51.4316 97.4342 51.6855 96.0801 51.6855C93.304 51.6855 90.6549 51.237 88.1328 50.3398C84.6797 49.0872 81.9036 47.2337 79.8047 44.7793C77.1302 41.6478 75.793 37.6784 75.793 32.8711C75.793 29.401 76.6816 26.2441 78.459 23.4004C80.2363 20.5397 82.6908 18.2799 85.8223 16.6211C88.9707 14.9622 92.3477 14.1328 95.9531 14.1328C99.5755 14.1328 102.817 14.9368 105.678 16.5449C108.538 18.153 110.832 20.362 112.559 23.1719C114.285 25.9818 115.148 29.0286 115.148 32.3125C115.148 35.5794 114.294 38.694 112.584 41.6562C110.874 44.6016 108.53 46.9883 105.551 48.8164ZM81.125 32.0586C81.125 34.8685 81.7428 37.6615 82.9785 40.4375C84.2311 43.1966 86.0169 45.4479 88.3359 47.1914C90.6549 48.9349 93.3379 49.8066 96.3848 49.8066C100.718 49.8066 104.095 48.1478 106.516 44.8301C108.699 41.834 109.791 38.0085 109.791 33.3535C109.791 28.6986 108.454 24.6868 105.779 21.3184C104.476 19.6764 102.876 18.3646 100.98 17.3828C99.1016 16.3841 97.1973 15.8848 95.2676 15.8848C93.3548 15.8848 91.7806 16.0964 90.5449 16.5195C89.3262 16.9427 88.2174 17.5267 87.2188 18.2715C86.2201 18.9993 85.3398 19.8711 84.5781 20.8867C83.8164 21.9023 83.1816 23.0026 82.6738 24.1875C81.6413 26.625 81.125 29.2487 81.125 32.0586Z" fill="black"/>
<path d="M195.721 49.9844C195.822 49.9844 195.873 50.0521 195.873 50.1875V50.7969C195.873 50.9323 195.822 51 195.721 51H183.863C183.728 51 183.66 50.9323 183.66 50.7969V50.1875C183.66 50.0521 183.728 49.9844 183.863 49.9844C186.639 49.9844 188.146 48.791 188.383 46.4043C188.451 45.7103 188.518 44.5592 188.586 42.9512C188.671 41.3262 188.899 37.8477 189.271 32.5156C189.644 27.1667 189.83 22.8418 189.83 19.541V18.6016C189.83 17.9245 189.441 17.3574 188.662 16.9004C187.9 16.4434 187.342 16.2148 186.986 16.2148C186.631 16.2148 186.453 16.1471 186.453 16.0117V15.4023C186.453 15.2669 186.521 15.1992 186.656 15.1992H193.994C194.316 15.25 194.578 15.4362 194.781 15.7578L206.689 42.291C206.774 42.4095 206.842 42.5111 206.893 42.5957C206.943 42.6803 207.07 42.7227 207.273 42.7227C207.477 42.7057 207.629 42.5534 207.73 42.2656L219.512 16.2148C219.867 15.5378 220.189 15.1992 220.477 15.1992H227.865C228.001 15.1992 228.068 15.2669 228.068 15.4023V16.0117C228.068 16.1471 228.026 16.2148 227.941 16.2148C227.434 16.2148 226.807 16.3841 226.062 16.7227C224.928 17.2305 224.361 17.9837 224.361 18.9824L225.885 47.0391C225.919 47.9193 226.376 48.6302 227.256 49.1719C228.136 49.7135 229.287 49.9844 230.709 49.9844C230.844 49.9844 230.912 50.0521 230.912 50.1875V50.7969C230.912 50.9323 230.844 51 230.709 51H216.287C216.152 51 216.084 50.9323 216.084 50.7969V50.1875C216.084 50.0521 216.152 49.9844 216.287 49.9844C219.317 49.9844 220.832 49.248 220.832 47.7754L219.486 23.5273C219.469 23.3581 219.419 23.2734 219.334 23.2734C219.266 23.2734 219.207 23.3496 219.156 23.502L206.537 50.8223C206.469 50.9408 206.275 51 205.953 51C205.632 51 205.445 50.9323 205.395 50.7969L192.953 23.4258C192.852 23.1888 192.75 23.0703 192.648 23.0703C192.564 23.0703 192.521 23.2565 192.521 23.6289C192.521 24.4076 192.318 28.0807 191.912 34.6484C191.506 41.2161 191.303 45.3125 191.303 46.9375V47.9785C191.506 48.9434 192.462 49.5697 194.172 49.8574C194.663 49.9421 195.179 49.9844 195.721 49.9844Z" fill="black"/>
<path d="M131.178 50.7969V50.0859C131.178 49.9505 131.245 49.8828 131.381 49.8828H131.939C132.65 49.832 133.378 49.8066 134.123 49.8066C134.868 49.7897 135.545 49.6966 136.154 49.5273C137.542 49.1211 138.236 48.1055 138.236 46.4805V19.7188C138.236 18.043 137.246 16.9766 135.266 16.5195C134.707 16.401 134.14 16.2995 133.564 16.2148H133.031C132.896 16.2148 132.828 16.1471 132.828 16.0117V15.4023C132.828 15.2669 132.896 15.1992 133.031 15.1992H157.178C157.482 15.1992 157.702 15.2585 157.838 15.377C157.973 15.4785 158.058 15.7155 158.092 16.0879L158.549 23.4512C158.549 23.6204 158.422 23.7051 158.168 23.7051C157.914 23.7051 157.728 23.6289 157.609 23.4766C157.508 23.3073 157.372 22.6895 157.203 21.623C157.051 20.5566 156.763 19.668 156.34 18.957C155.917 18.2461 155.172 17.7975 154.105 17.6113H143.518C143.298 17.6113 143.188 17.7214 143.188 17.9414V31.0684C143.188 31.2376 143.272 31.3223 143.441 31.3223H152.227C154.495 31.3223 155.629 30.002 155.629 27.3613C155.629 27.2259 155.697 27.1582 155.832 27.1582H156.441C156.577 27.1582 156.645 27.2259 156.645 27.3613V38.2285C156.645 38.3639 156.577 38.4316 156.441 38.4316H155.832C155.697 38.4316 155.629 38.3639 155.629 38.2285C155.629 35.7233 154.901 34.276 153.445 33.8867C153.039 33.7852 152.607 33.7344 152.15 33.7344H143.441C143.272 33.7344 143.188 33.819 143.188 33.9883V46.3535C143.188 47.623 143.771 48.3424 144.939 48.5117C145.278 48.5625 145.633 48.5879 146.006 48.5879H154.461C156.204 48.5879 157.559 47.8177 158.523 46.2773C159.217 45.1771 159.641 43.916 159.793 42.4941C159.844 42.0202 160.098 41.7832 160.555 41.7832C160.758 41.7832 160.859 41.8932 160.859 42.1133L160.021 50.6445C159.92 50.8815 159.801 51 159.666 51H131.381C131.245 51 131.178 50.9323 131.178 50.7969Z" fill="black"/>
</svg>
