<svg version="1.1" xmlns="http://www.w3.org/2000/svg" xmlns:xlink="http://www.w3.org/1999/xlink" viewBox="0 0 172 172">
  <defs>
    <linearGradient x1="46.99864" y1="46.99864" x2="125.97817" y2="125.97817" gradientUnits="userSpaceOnUse"
                    id="color-1">
      <stop offset="0" stop-color="#4c8fe9"></stop>
      <stop offset="1" stop-color="#134bd4"></stop>
    </linearGradient>
  </defs>
  <g fill="none" fill-rule="nonzero" stroke="none" stroke-width="1" stroke-linecap="butt" stroke-linejoin="miter"
     stroke-miterlimit="10" stroke-dasharray="" stroke-dashoffset="0" font-family="none" font-weight="none"
     font-size="none" text-anchor="none" style="mix-blend-mode: normal">
    <path d="M0,172v-172h172v172z" fill="none"></path>
    <path d="M0,172v-172h172v172z" fill="none"></path>
    <g>
      <path
        d="M92.68184,30.41211l7.138,4.00473l8.18433,0.10033c4.75867,0.0602 9.14467,2.59147 11.5756,6.6822l4.1796,7.03767l7.03767,4.1796c4.0936,2.43093 6.62487,6.81693 6.6822,11.5756l0.10033,8.18433l4.00473,7.138c2.32773,4.15093 2.32773,9.21633 0,13.36727l-4.00473,7.138l-0.10033,8.18433c-0.0602,4.75867 -2.59147,9.14467 -6.6822,11.5756l-7.03767,4.1796l-4.1796,7.03767c-2.43093,4.0936 -6.81693,6.62487 -11.5756,6.6822l-8.18433,0.10033l-7.138,4.00473c-4.15093,2.32773 -9.21633,2.32773 -13.36727,0l-7.138,-4.00473l-8.18433,-0.10033c-4.75867,-0.0602 -9.14467,-2.59147 -11.5756,-6.6822l-4.1796,-7.03767l-7.03767,-4.1796c-4.0936,-2.43093 -6.62487,-6.81693 -6.6822,-11.5756l-0.10033,-8.18433l-4.00473,-7.138c-2.32773,-4.15093 -2.32773,-9.21633 0,-13.36727l4.00473,-7.138l0.10033,-8.18433c0.0602,-4.75867 2.59147,-9.14467 6.6822,-11.5756l7.03767,-4.1796l4.1796,-7.03767c2.43093,-4.0936 6.81693,-6.62487 11.5756,-6.6822l8.18433,-0.10033l7.138,-4.00473c4.1538,-2.32773 9.21633,-2.32773 13.36727,0z"
        fill="url(#color-1)"></path>
      <path
        d="M109.42604,63.55938l-29.15973,29.15973l-14.8264,-14.8264c-2.23887,-2.23887 -5.86807,-2.23887 -8.10693,0l-4.05347,4.05347c-2.23887,2.23887 -2.23887,5.86807 0,8.10693l22.93333,22.93333c2.23887,2.23887 5.86807,2.23887 8.10693,0l37.26667,-37.26667c2.23887,-2.23887 2.23887,-5.86807 0,-8.10693l-4.05347,-4.05347c-2.23887,-2.23887 -5.86807,-2.23887 -8.10693,0z"
        fill="#000000" opacity="0.05"></path>
      <path
        d="M77.22477,111.97451l-22.93333,-22.93333c-1.67987,-1.67987 -1.67987,-4.4032 0,-6.0802l4.05347,-4.05347c1.67987,-1.67987 4.4032,-1.67987 6.0802,0l15.8412,15.83833l30.17167,-30.17167c1.67987,-1.67987 4.4032,-1.67987 6.0802,0l4.05347,4.05347c1.67987,1.67987 1.67987,4.4032 0,6.0802l-37.26667,37.26667c-1.677,1.677 -4.40033,1.677 -6.0802,0z"
        fill="#000000" opacity="0.07"></path>
      <path
        d="M78.23957,110.95971l-22.93333,-22.93333c-1.12087,-1.12087 -1.12087,-2.93547 0,-4.05347l4.05347,-4.05347c1.12087,-1.12087 2.93547,-1.12087 4.05347,0l16.85313,16.85313l31.18647,-31.18647c1.12087,-1.12087 2.93547,-1.12087 4.05347,0l4.05347,4.05347c1.12087,1.12087 1.12087,2.93547 0,4.05347l-37.26667,37.26667c-1.118,1.12087 -2.93547,1.12087 -4.05347,0z"
        fill="#ffffff"></path>
    </g>
    <path d="" fill="none"></path>
    <path d="" fill="none"></path>
  </g>
</svg>