<svg width="214" height="214" viewBox="0 0 214 214" fill="none" xmlns="http://www.w3.org/2000/svg">
<mask id="mask0_101_27" style="mask-type:luminance" maskUnits="userSpaceOnUse" x="0" y="0" width="214" height="214">
<path d="M0 0H213.333V213.333H0V0Z" fill="white"/>
</mask>
<g mask="url(#mask0_101_27)">
<path d="M213.333 105.872C213.333 164.344 165.933 211.744 107.461 211.744C48.9907 211.744 1.58936 164.344 1.58936 105.872C1.58936 47.3999 48.9907 -0.000137329 107.461 -0.000137329C165.933 -0.000137329 213.333 47.3999 213.333 105.872Z" fill="white"/>
<path d="M83.0699 95.8697C84.2747 95.5511 84.6507 95.2254 84.7489 95.1152C83.7238 92.538 78.888 91.4219 75.518 92.2219C74.2366 92.5261 72.1792 93.3332 72.1217 95.3931C74.5336 96.6002 79.9467 96.6912 83.0699 95.8697Z" fill="black"/>
<path d="M149.951 85.708C150.064 85.3655 149.963 84.9871 149.697 84.7332C149.431 84.4937 149.041 84.429 148.71 84.5679C148.48 84.6637 145.927 85.7631 143.106 87.5667C144.742 88.278 146.48 89.4205 148.241 90.939L149.951 85.708Z" fill="black"/>
<path d="M60.5827 69.4596C60.4941 68.8584 58.3264 67.8021 54.1373 67.8357C50.1949 67.8692 46.0681 69.0045 45.1052 71.1266C50.2835 73.2319 57.4881 72.2859 59.8785 70.5278C60.233 70.2668 60.6425 69.8716 60.5827 69.4596Z" fill="black"/>
<path d="M142.736 98.0368C142.053 98.0368 141.495 97.4788 141.495 96.7961C141.495 96.1135 142.053 95.5674 142.736 95.5674C143.418 95.5674 143.964 96.1135 143.964 96.7961C143.964 97.4788 143.418 98.0368 142.736 98.0368ZM163.892 132.699C163.892 111.328 150.57 92.2022 141.761 89.0646L141.162 88.9089C138.271 91.0574 135.581 93.8669 135.241 97.05C135.04 98.935 135.002 100.365 134.978 101.517C134.913 104.429 134.901 105.112 132.585 106.707C129.09 109.112 122.925 111.974 120.42 111.074C119.915 110.884 119.61 110.568 119.46 110.037C118.674 107.265 119.737 106.719 122.952 105.555C124.559 104.973 126.382 104.315 128.053 103.05C132.458 99.6823 133.61 94.1758 131.191 87.9365C127.711 78.8972 117.407 69.925 103.649 63.9251C91.7118 58.7229 71.1063 53.0631 40.8412 55.6451C35.3611 56.1026 32.4869 57.4055 32.0558 59.6211C31.5385 62.215 34.6138 65.1778 41.4352 68.6579C42.2017 69.0412 42.9657 69.3861 43.7322 69.695C45.4998 67.0101 50.1464 65.9706 54.1223 65.9371C57.727 65.9035 62.1005 66.7394 62.4622 69.1849C62.57 69.925 62.4047 71.0267 61.0036 72.0591C59.1617 73.4099 55.6983 74.241 52.0218 74.241C49.4374 74.241 46.7716 73.8027 44.4603 72.8758C47.0566 79.6996 51.9236 82.3797 56.927 83.8096C56.3402 80.3774 59.624 77.6972 63.267 76.5332C67.4777 75.1895 72.4524 75.6542 73.8128 79.1487C74.0811 79.8385 74.2895 81.1942 72.6655 82.533C70.5003 84.3174 65.3076 85.527 61.4227 85.527C60.115 85.527 58.9605 85.3881 58.115 85.091C58.5222 86.1545 59.2431 87.3329 60.3976 88.6191C63.3077 91.8645 66.6465 94.2597 70.2488 95.7878C70.0956 93.1531 71.8704 91.1364 75.0799 90.3747C79.3791 89.3496 85.1562 90.7963 86.5454 94.4992C86.8424 95.2944 86.5838 96.0944 85.8317 96.6955C84.5551 97.7135 81.3839 98.2955 78.1696 98.2955C75.4463 98.2955 72.7063 97.8716 71.0344 96.9494C71.7578 103.282 77.281 106.106 81.7623 107.67C81.8294 134.525 113.033 143.533 130.676 139.085C136.441 137.631 145.971 133.195 145.296 120.863C145.267 120.338 145.67 119.89 146.192 119.861C146.695 119.835 147.162 120.235 147.193 120.757C147.739 130.75 141.895 138.098 131.16 140.92C128.07 141.732 124.729 142.134 121.273 142.134C115.637 142.134 109.702 141.068 104.064 138.979C96.3224 136.112 90.0184 131.612 85.8053 126.055C85.1586 125.2 84.5622 124.321 84.0161 123.418C83.8629 123.164 83.7048 122.913 83.5587 122.657C82.0665 122.74 80.4426 122.681 79.0151 122.302C89.822 138.395 104.061 159.192 136.935 159.192C162.014 159.192 163.892 139.942 163.892 132.699Z" fill="black"/>
<path d="M72.0425 79.8361C71.1515 77.5439 67.1731 77.2781 63.8439 78.3415C61.0775 79.2253 58.5314 81.0792 58.7662 83.321C61.0535 84.1497 68.7946 83.2635 71.458 81.0672C72.2628 80.4037 72.1095 80.0061 72.0425 79.8361Z" fill="black"/>
<path d="M178.241 111.1C175.949 107.998 173.077 106.606 170.557 107.354C167.621 108.226 166.785 111.227 166.038 113.885C165.382 116.233 164.867 117.605 163.906 118.127C165.092 122.728 165.791 127.631 165.791 132.702C165.791 145.072 161.489 153.357 152.738 157.736C162.886 155.218 170.639 149.829 176.179 141.477C184.191 129.389 182.988 117.504 178.241 111.1Z" fill="black"/>
<path d="M65.7642 116.897C57.5105 114.748 51.3837 115.239 49.4988 117.668C48.8401 118.542 48.7635 119.618 49.3095 120.643C50.4472 122.808 54.4232 124.923 60.9021 125.644C47.9299 129.186 42.4235 135.098 41.7529 139.593C41.384 142.036 42.4115 144.111 44.4857 145.136C49.2329 147.49 53.1178 143.517 57.6255 138.92C61.5871 134.87 65.9798 130.391 71.891 128.87C69.1438 130.973 67.6252 133.529 67.2827 135.579C67.0672 136.959 67.3833 138.087 68.1689 138.769C68.9402 139.428 70.0683 139.579 71.3449 139.201C74.1065 138.391 77.6489 135.998 80.4177 127.23C79.9076 126.54 76.9424 119.807 65.7642 116.897Z" fill="black"/>
</g>
</svg>
