<?xml version="1.0" standalone="no"?>
<!DOCTYPE svg PUBLIC "-//W3C//DTD SVG 20010904//EN"
 "http://www.w3.org/TR/2001/REC-SVG-20010904/DTD/svg10.dtd">
<svg version="1.0" xmlns="https://www.w3.org/2000/svg"
 width="700.000000pt" height="700.000000pt" viewBox="0 0 700.000000 700.000000"
 preserveAspectRatio="xMidYMid meet">
<metadata>
Created by potrace 1.11, written by Peter Selinger 2001-2013
</metadata>
<g transform="translate(0.000000,700.000000) scale(0.100000,-0.100000)"
fill="#000000" stroke="none">
<path d="M3133 6990 c-92 -21 -203 -101 -256 -186 -122 -196 -44 -474 163
-579 l50 -25 0 -745 0 -745 -42 -21 c-181 -91 -268 -291 -212 -488 16 -60 16
-62 -2 -76 -25 -17 -343 -271 -369 -293 -11 -10 -50 -42 -87 -71 l-68 -53 -49
17 c-233 77 -485 -73 -529 -315 -33 -177 53 -352 212 -436 l52 -27 -1 -349 0
-349 -55 -30 c-246 -134 -291 -470 -87 -655 l53 -49 -184 -320 c-101 -176
-194 -337 -205 -358 -11 -21 -26 -41 -32 -44 -7 -2 -36 2 -64 11 -60 18 -187
15 -241 -6 -325 -123 -374 -551 -85 -733 73 -45 128 -60 225 -59 69 0 98 6
152 28 191 79 295 306 230 500 -10 30 -15 59 -11 63 7 7 137 232 395 680 l99
173 54 16 c82 24 123 47 181 105 161 159 161 419 0 577 -25 24 -67 57 -95 72
l-50 28 -3 350 -2 350 44 22 c167 80 261 281 216 460 -6 25 -14 54 -17 66 -4
17 40 56 266 237 215 172 275 216 289 209 9 -5 45 -15 80 -22 163 -34 320 34
428 183 l20 28 119 -51 c66 -28 134 -57 150 -65 17 -7 80 -34 140 -60 61 -26
128 -55 150 -65 22 -10 81 -34 130 -55 50 -20 113 -47 140 -60 28 -12 95 -41
150 -64 101 -43 122 -52 206 -89 25 -12 70 -31 100 -42 29 -12 76 -32 104 -44
27 -13 107 -47 177 -77 70 -30 128 -58 128 -64 0 -5 13 -37 29 -71 94 -198
339 -288 536 -195 217 101 302 350 193 564 -27 53 -93 123 -145 154 -46 27
-48 31 -33 77 9 27 56 199 139 506 11 41 29 107 40 145 11 39 42 153 70 255
89 328 223 815 224 815 1 0 28 13 61 28 80 38 120 72 167 141 128 191 82 437
-108 567 -87 61 -212 86 -313 64 -103 -22 -214 -103 -267 -192 -13 -24 -30
-43 -35 -43 -6 0 -49 9 -97 20 -47 10 -139 31 -203 45 -65 14 -123 28 -130 30
-7 2 -24 6 -38 9 -14 2 -45 9 -70 15 -25 5 -61 13 -80 16 -19 3 -43 8 -52 11
-9 3 -25 6 -35 8 -10 3 -49 12 -88 21 -62 14 -116 26 -195 41 -21 4 -131 30
-215 50 -25 5 -153 34 -180 40 -11 2 -29 6 -40 8 -31 6 -378 84 -495 111 -58
13 -151 34 -206 46 l-101 22 -23 55 c-28 66 -127 172 -185 197 -93 40 -200 53
-282 35z m139 -269 c4 -1 23 -15 42 -32 34 -29 54 -81 47 -119 -13 -69 -77
-119 -144 -114 -102 7 -161 122 -104 204 36 53 81 70 159 61z m678 -371 c151
-34 284 -64 295 -66 11 -3 31 -7 45 -10 14 -3 86 -19 160 -35 74 -17 142 -32
150 -34 8 -2 89 -20 180 -40 91 -21 183 -41 205 -46 22 -4 103 -22 180 -39 77
-17 147 -33 155 -35 8 -2 89 -20 180 -40 91 -20 176 -39 189 -41 57 -11 140
-32 150 -39 6 -3 11 -12 11 -19 0 -47 118 -190 180 -218 16 -7 30 -18 30 -24
0 -6 -46 -177 -101 -380 -56 -203 -114 -418 -131 -479 -16 -60 -38 -141 -49
-179 -12 -38 -22 -76 -24 -85 -2 -9 -42 -157 -89 -329 -47 -171 -86 -314 -86
-316 0 -3 -14 -7 -30 -11 -68 -15 -160 -93 -226 -193 -2 -3 -1649 699 -1685
719 -9 5 -20 21 -24 36 -20 84 -123 203 -206 239 -21 10 -40 20 -41 23 0 3 -2
340 -3 749 l-1 743 58 31 c62 33 140 110 166 164 14 29 17 31 51 23 20 -4 160
-35 311 -69z m2342 -186 c66 -32 94 -107 65 -177 -42 -99 -192 -104 -242 -7
-60 115 61 240 177 184z m-2986 -1736 c81 -55 71 -183 -18 -227 -97 -48 -207
27 -194 133 13 104 124 154 212 94z m2454 -815 c114 -67 58 -249 -75 -247
-125 2 -181 163 -82 238 51 38 103 42 157 9z m-3574 -153 c67 -26 98 -102 70
-174 -40 -104 -191 -113 -242 -15 -58 113 52 234 172 189z m24 -1488 c106 -78
54 -248 -75 -246 -107 2 -166 100 -120 197 32 68 134 93 195 49z m-859 -1433
c102 -35 130 -151 53 -226 -19 -18 -42 -34 -52 -34 -9 -1 -27 -3 -40 -4 -34
-4 -95 31 -116 66 -36 60 -9 165 47 184 12 5 31 11 42 15 28 11 28 11 66 -1z"/>
<path d="M1793 6350 c-45 -27 -64 -60 -69 -122 -6 -60 -29 -150 -49 -188 -25
-48 -106 -129 -158 -159 -59 -33 -106 -47 -191 -56 -67 -7 -81 -13 -114 -48
-50 -53 -43 -145 14 -193 26 -23 48 -29 134 -38 138 -15 261 -102 320 -228 28
-61 32 -76 45 -181 9 -79 47 -120 117 -130 48 -6 108 22 131 61 10 18 20 58
23 89 10 120 65 230 147 296 75 62 140 85 278 102 51 6 105 49 115 92 11 41
-3 103 -28 130 -29 32 -57 43 -127 49 -214 18 -364 171 -384 392 -4 41 -14 73
-27 93 -43 59 -118 76 -177 39z"/>
<path d="M663 4990 c-312 -86 -410 -466 -177 -693 120 -118 315 -145 469 -66
157 82 249 273 213 444 -47 225 -288 375 -505 315z m153 -270 c75 -29 107
-127 64 -197 -68 -113 -250 -63 -250 69 0 96 96 162 186 128z"/>
<path d="M3249 3347 c-93 -27 -176 -90 -232 -178 -102 -163 -77 -370 62 -506
130 -128 311 -154 479 -69 92 47 188 173 206 271 36 193 -57 377 -233 462 -45
22 -73 27 -146 30 -53 2 -109 -3 -136 -10z m166 -270 c99 -47 111 -181 21
-236 -61 -38 -115 -32 -166 19 -35 35 -40 45 -40 88 0 28 7 59 19 78 32 53
111 77 166 51z"/>
<path d="M5655 2812 c-61 -14 -105 -77 -105 -151 0 -83 -52 -202 -119 -270
-64 -65 -189 -121 -274 -121 -82 0 -144 -52 -151 -127 -4 -43 11 -78 46 -109
27 -26 49 -33 114 -40 110 -11 176 -40 253 -110 68 -62 121 -167 128 -255 6
-88 27 -132 73 -158 47 -26 95 -27 137 -1 41 25 60 62 68 136 13 118 44 190
115 263 73 75 160 115 274 126 109 11 161 60 153 146 -7 85 -57 123 -177 133
-197 18 -349 180 -365 389 -8 107 -79 170 -170 149z"/>
<path d="M3995 2539 c-309 -31 -534 -319 -487 -623 49 -316 353 -523 661 -451
180 43 315 160 388 338 21 51 29 93 37 192 4 54 -22 162 -58 240 -91 197 -321
327 -541 304z m147 -289 c178 -66 234 -290 108 -433 -55 -62 -118 -90 -201
-90 -155 -1 -271 113 -272 268 -1 33 3 69 8 80 4 11 9 22 10 25 5 21 38 69 62
91 85 77 184 97 285 59z"/>
</g>
</svg>
